<svg width="130" height="130" viewBox="0 0 130 130" fill="none" xmlns="http://www.w3.org/2000/svg">
<g clip-path="url(#clip0)">
<circle cx="64.5" cy="64.5" r="60.5" transform="rotate(-180 64.5 64.5)" fill="#C4C4C4"/>
<path d="M65.3126 53.7911L64.9591 53.4376L64.6056 53.7911L40.6004 77.7922L33.1814 70.2409L64.9591 38.6116L96.7368 70.2409L89.3178 77.7922L65.3126 53.7911ZM64.9591 10.342C34.8316 10.342 10.3216 34.8477 10.3216 64.9703C10.3216 95.0929 34.8316 119.599 64.9591 119.599C95.0866 119.599 119.597 95.0929 119.597 64.9703C119.597 34.8477 95.0866 10.342 64.9591 10.342ZM64.9591 129.424C29.3583 129.424 0.494141 100.565 0.494141 64.9703C0.494141 29.3757 29.3583 0.516304 64.9591 0.516304C100.56 0.516304 129.424 29.3757 129.424 64.9703C129.424 100.565 100.56 129.424 64.9591 129.424Z" fill="black" stroke="black" stroke-linecap="round"/>
</g>
<defs>
<clipPath id="clip0">
<rect width="130" height="130" fill="white" transform="translate(0 130) rotate(-90)"/>
</clipPath>
</defs>
</svg>
