<svg width="134" height="140" viewBox="0 0 134 140" fill="none" xmlns="http://www.w3.org/2000/svg">
<path d="M67 0C30.0048 0 0 31.3425 0 70C0 100.928 19.1955 127.167 45.8224 136.424C49.1668 137.072 50.25 134.902 50.25 133.058V120.027C31.6128 124.262 27.7324 111.767 27.7324 111.767C24.6839 103.676 20.2898 101.523 20.2898 101.523C14.2096 97.1775 20.7533 97.2708 20.7533 97.2708C27.4812 97.7608 31.021 104.487 31.021 104.487C36.9952 115.185 46.6934 112.093 50.518 110.303C51.1154 105.782 52.8518 102.69 54.7725 100.946C39.8929 99.1667 24.2484 93.1642 24.2484 66.3483C24.2484 58.7008 26.867 52.4592 31.1494 47.5592C30.4571 45.7917 28.1623 38.6692 31.8027 29.0325C31.8027 29.0325 37.4307 27.1542 50.2332 36.2075C55.5765 34.6558 61.305 33.88 67 33.8508C72.695 33.88 78.4291 34.6558 83.7835 36.2075C96.5749 27.1542 102.192 29.0325 102.192 29.0325C105.838 38.675 103.543 45.7975 102.851 47.5592C107.15 52.4592 109.746 58.7067 109.746 66.3483C109.746 93.2342 94.0736 99.155 79.1549 100.888C81.5558 103.058 83.75 107.316 83.75 113.849V133.058C83.75 134.919 84.822 137.107 88.2223 136.418C114.827 127.149 134 100.917 134 70C134 31.3425 104.001 0 67 0Z" fill="#C4005E"/>
</svg>
