<svg width="24" height="24" viewBox="0 0 24 24" fill="none" xmlns="http://www.w3.org/2000/svg">
<g clip-path="url(#clip0)">
<path d="M16.5 12.5C16.5 13.328 15.94 14 15.25 14C14.56 14 14 13.328 14 12.5C14 11.672 14.56 11 15.25 11C15.94 11 16.5 11.672 16.5 12.5ZM8.75 11C8.06 11 7.5 11.672 7.5 12.5C7.5 13.328 8.06 14 8.75 14C9.44 14 10 13.328 10 12.5C10 11.672 9.44 11 8.75 11ZM12 16.357C9.625 14.903 10.311 18.452 7 16.996C7.5 19.008 10.506 19.349 12 18.137C13.494 19.349 16.5 19.008 17 16.996C13.689 18.453 14.375 14.904 12 16.357V16.357ZM24 13.313C24 15.078 23.015 17.304 20.861 18.219C18.811 21.493 15.886 24 12 24C8.251 24 5.142 21.418 3.138 18.219C0.985 17.303 0 15.077 0 13.313C0 11.318 0.811 9.539 2.683 9.354L2.713 9.326L2.716 9.306C2.466 7.361 2.378 4.386 3.435 3.259C4.003 2.654 4.652 2.42 5.482 2.694C6.776 0.929 8.936 0 11.854 0C16.5 0 18.406 2.417 20.031 4.46C20.924 5.583 22 6.708 24 6.646C23.191 7.404 22.221 8 21.168 8.441C21.219 8.742 21.261 9.045 21.29 9.348C23.14 9.513 24 11.253 24 13.313ZM21.42 11.447C21.185 11.294 20.89 11.331 20.749 11.394C20.089 11.687 19.343 11.202 19.343 10.48C19.343 10.001 19.308 9.523 19.243 9.05C15.144 9.978 10.5 8.819 8.875 5.583C6.5 5.958 5.025 7.939 4.646 10.604H4.642C4.555 11.287 3.857 11.663 3.252 11.394C3.111 11.332 2.816 11.294 2.58 11.447C1.58 12.098 1.687 15.631 4.134 16.459C4.358 16.535 4.547 16.687 4.669 16.889C6.377 19.718 8.684 22 12 22C15.318 22 17.624 19.716 19.331 16.889C19.454 16.687 19.644 16.535 19.867 16.459C22.315 15.63 22.42 12.095 21.42 11.447V11.447Z" fill="#464646"/>
</g>
<defs>
<clipPath id="clip0">
<rect width="24" height="24" fill="white"/>
</clipPath>
</defs>
</svg>
