<svg width="134" height="140" viewBox="0 0 134 140" fill="none" xmlns="http://www.w3.org/2000/svg">
<path d="M106.083 0H27.9167C12.5011 0 0 13.0608 0 29.1667V110.833C0 126.939 12.5011 140 27.9167 140H106.083C121.505 140 134 126.939 134 110.833V29.1667C134 13.0608 121.505 0 106.083 0ZM44.6667 110.833H27.9167V46.6667H44.6667V110.833ZM36.2917 39.27C30.8982 39.27 26.5208 34.6617 26.5208 28.98C26.5208 23.2983 30.8982 18.69 36.2917 18.69C41.6852 18.69 46.0625 23.2983 46.0625 28.98C46.0625 34.6617 41.6908 39.27 36.2917 39.27ZM111.667 110.833H94.9167V78.1433C94.9167 58.4967 72.5833 59.9842 72.5833 78.1433V110.833H55.8333V46.6667H72.5833V56.9625C80.3777 41.8775 111.667 40.7633 111.667 71.4058V110.833Z" fill="#C3005E"/>
</svg>
