<svg width="11" height="10" viewBox="0 0 11 10" fill="none" xmlns="http://www.w3.org/2000/svg">
<path d="M10.144 5.418C10.342 5.418 10.498 5.475 10.612 5.589C10.732 5.697 10.792 5.844 10.792 6.03V7.596C10.792 7.896 10.768 8.127 10.72 8.289C10.678 8.445 10.597 8.568 10.477 8.658C10.363 8.748 10.189 8.826 9.955 8.892C9.721 8.952 9.46 8.997 9.172 9.027C8.89 9.063 8.626 9.081 8.38 9.081C7.69 9.081 7.09 8.952 6.58 8.694C6.076 8.43 5.689 8.055 5.419 7.569C5.149 7.077 5.014 6.495 5.014 5.823C5.014 5.163 5.149 4.59 5.419 4.104C5.689 3.612 6.073 3.234 6.571 2.97C7.069 2.706 7.651 2.574 8.317 2.574C8.737 2.574 9.112 2.625 9.442 2.727C9.778 2.823 10.09 2.973 10.378 3.177C10.48 3.249 10.552 3.327 10.594 3.411C10.642 3.495 10.666 3.603 10.666 3.735C10.666 3.921 10.615 4.08 10.513 4.212C10.411 4.338 10.288 4.401 10.144 4.401C10.048 4.401 9.964 4.389 9.892 4.365C9.826 4.335 9.739 4.287 9.631 4.221C9.409 4.101 9.199 4.014 9.001 3.96C8.809 3.906 8.599 3.879 8.371 3.879C7.801 3.879 7.375 4.038 7.093 4.356C6.817 4.674 6.679 5.163 6.679 5.823C6.679 6.501 6.823 7.005 7.111 7.335C7.405 7.659 7.852 7.821 8.452 7.821C8.74 7.821 9.025 7.791 9.307 7.731V6.552H8.659C8.461 6.552 8.308 6.504 8.2 6.408C8.092 6.306 8.038 6.165 8.038 5.985C8.038 5.805 8.092 5.667 8.2 5.571C8.308 5.469 8.461 5.418 8.659 5.418H10.144Z" fill="#9F131C"/>
<path d="M0.856001 5.418C0.658001 5.418 0.502001 5.475 0.388001 5.589C0.268001 5.697 0.208001 5.844 0.208001 6.03V7.596C0.208001 7.896 0.232001 8.127 0.280001 8.289C0.322001 8.445 0.403001 8.568 0.523001 8.658C0.637001 8.748 0.811001 8.826 1.045 8.892C1.279 8.952 1.54 8.997 1.828 9.027C2.11 9.063 2.374 9.081 2.62 9.081C3.31 9.081 3.91 8.952 4.42 8.694C4.924 8.43 5.311 8.055 5.581 7.569C5.851 7.077 5.986 6.495 5.986 5.823C5.986 5.163 5.851 4.59 5.581 4.104C5.311 3.612 4.927 3.234 4.429 2.97C3.931 2.706 3.349 2.574 2.683 2.574C2.263 2.574 1.888 2.625 1.558 2.727C1.222 2.823 0.910001 2.973 0.622001 3.177C0.520001 3.249 0.448001 3.327 0.406001 3.411C0.358001 3.495 0.334001 3.603 0.334001 3.735C0.334001 3.921 0.385001 4.08 0.487001 4.212C0.589001 4.338 0.712001 4.401 0.856001 4.401C0.952001 4.401 1.036 4.389 1.108 4.365C1.174 4.335 1.261 4.287 1.369 4.221C1.591 4.101 1.801 4.014 1.999 3.96C2.191 3.906 2.401 3.879 2.629 3.879C3.199 3.879 3.625 4.038 3.907 4.356C4.183 4.674 4.321 5.163 4.321 5.823C4.321 6.501 4.177 7.005 3.889 7.335C3.595 7.659 3.148 7.821 2.548 7.821C2.26 7.821 1.975 7.791 1.693 7.731V6.552H2.341C2.539 6.552 2.692 6.504 2.8 6.408C2.908 6.306 2.962 6.165 2.962 5.985C2.962 5.805 2.908 5.667 2.8 5.571C2.692 5.469 2.539 5.418 2.341 5.418H0.856001Z" fill="#9F131C"/>
</svg>
